<?xml version="1.0" encoding="utf-8" standalone="yes"?>
<!DOCTYPE svg PUBLIC "-//W3C//DTD SVG 1.1//EN" "http://www.w3.org/Graphics/SVG/1.1/DTD/svg11.dtd">
<svg style="fill:none;stroke:none;fill-rule:evenodd;clip-rule:evenodd;stroke-linecap:round;stroke-linejoin:round;stroke-miterlimit:1.5;" version="1.1" xmlns="http://www.w3.org/2000/svg" xmlns:xlink="http://www.w3.org/1999/xlink" width="952" height="611" viewBox="0 0 952 611"><style class="text-font-style fontImports" data-font-family="Roboto">@import url(https://fonts.googleapis.com/css2?family=Roboto:wght@400;700&amp;amp;display=block);</style><g id="items" style="isolation: isolate"><g id="blend" style="mix-blend-mode: normal"><g id="g-root-cp_-1_Common_i0wilte8cpho-fill" data-item-order="-578540" transform="translate(15, 94)"><g id="cp_-1_Common_i0wilte8cpho-fill-merged" stroke="none" fill="#b7b7b7" fill-opacity="1"><g><path d="M39.091 430 V418 H460.909 V430 H475.455 V442 H490 V466 H10 V442 H24.545 V430 H39.091 M460.909 106 V118 H39.091 V106 H24.545 V94 H10 V82L250 10L490 82 V94 H475.455 V106 H460.909"></path></g></g></g><g id="g-root-cp_-1_Common_i0wilte8cpho-stroke" data-item-order="-578540" transform="translate(15, 94)"><g id="cp_-1_Common_i0wilte8cpho-stroke" fill="none" stroke-linecap="round" stroke-linejoin="round" stroke-miterlimit="4" stroke="#2c2c2c" stroke-width="2" stroke-opacity="1"><g><path d="M 10 442L 24.5455 442L 475.4546 442L 490 442L 490 466L 10 466L 10 442ZM 39.0909 418L 460.9091 418L 460.9091 430L 39.0909 430L 39.0909 418ZM 250 10L 490 82L 490 94L 475.4546 94L 24.5455 94L 10 94L 10 82L 250 10ZM 39.0909 118L 460.9091 118L 460.9091 106L 39.0909 106L 39.0909 118ZM 24.5455 94L 24.5455 106L 39.0909 106L 460.9091 106L 475.4546 106L 475.4546 94L 24.5455 94ZM 460.9091 430L 39.0909 430L 24.5455 430L 24.5455 442L 475.4546 442L 475.4546 430L 460.9091 430Z"></path></g></g></g><g id="g-root-cp_5_g-5_dbpw6pe8e1ol-fill" data-item-order="-578536" transform="translate(388, 202)"><g id="cp_5_g-5_dbpw6pe8e1ol-fill-merged" stroke="none" fill="#f79438" fill-opacity="1"><g><path d="M82 298 V310 H10 V298 H16 V286 H22 V34 H16 V22 H10 V10 H82 V22 H76 V34 H70 V286 H76 V298 H82"></path></g></g></g><g id="g-root-cp_5_g-5_dbpw6pe8e1ol-stroke" data-item-order="-578536" transform="translate(388, 202)"><g id="cp_5_g-5_dbpw6pe8e1ol-stroke" fill="none" stroke-linecap="round" stroke-linejoin="round" stroke-miterlimit="4" stroke="#2c2c2c" stroke-width="2" stroke-opacity="1"><g><path d="M 22 34L 70 34L 70 286L 22 286L 22 34ZM 16 22L 76 22L 82 22L 82 10L 10 10L 10 22L 16 22ZM 76 298L 16 298L 10 298L 10 310L 82 310L 82 298L 76 298ZM 76 298L 76 286L 70 286L 22 286L 16 286L 16 298L 76 298ZM 76 22L 16 22L 16 34L 22 34L 70 34L 76 34L 76 22Z"></path></g></g></g><g id="g-root-cp_4_g-4_4g2vxte8e2ha-fill" data-item-order="-578532" transform="translate(304, 202)"><g id="cp_4_g-4_4g2vxte8e2ha-fill-merged" stroke="none" fill="#ffe711" fill-opacity="1"><g><path d="M82 298 V310 H10 V298 H16 V286 H22 V34 H16 V22 H10 V10 H82 V22 H76 V34 H70 V286 H76 V298 H82"></path></g></g></g><g id="g-root-cp_4_g-4_4g2vxte8e2ha-stroke" data-item-order="-578532" transform="translate(304, 202)"><g id="cp_4_g-4_4g2vxte8e2ha-stroke" fill="none" stroke-linecap="round" stroke-linejoin="round" stroke-miterlimit="4" stroke="#2c2c2c" stroke-width="2" stroke-opacity="1"><g><path d="M 22 34L 70 34L 70 286L 22 286L 22 34ZM 16 22L 76 22L 82 22L 82 10L 10 10L 10 22L 16 22ZM 76 298L 16 298L 10 298L 10 310L 82 310L 82 298L 76 298ZM 76 298L 76 286L 70 286L 22 286L 16 286L 16 298L 76 298ZM 76 22L 16 22L 16 34L 22 34L 70 34L 76 34L 76 22Z"></path></g></g></g><g id="g-root-cp_3_g-3_4g2vxte8e2hb-fill" data-item-order="-578528" transform="translate(220, 202)"><g id="cp_3_g-3_4g2vxte8e2hb-fill-merged" stroke="none" fill="#a6da37" fill-opacity="1"><g><path d="M82 298 V310 H10 V298 H16 V286 H22 V34 H16 V22 H10 V10 H82 V22 H76 V34 H70 V286 H76 V298 H82"></path></g></g></g><g id="g-root-cp_3_g-3_4g2vxte8e2hb-stroke" data-item-order="-578528" transform="translate(220, 202)"><g id="cp_3_g-3_4g2vxte8e2hb-stroke" fill="none" stroke-linecap="round" stroke-linejoin="round" stroke-miterlimit="4" stroke="#2c2c2c" stroke-width="2" stroke-opacity="1"><g><path d="M 22 34L 70 34L 70 286L 22 286L 22 34ZM 16 22L 76 22L 82 22L 82 10L 10 10L 10 22L 16 22ZM 76 298L 16 298L 10 298L 10 310L 82 310L 82 298L 76 298ZM 76 298L 76 286L 70 286L 22 286L 16 286L 16 298L 76 298ZM 76 22L 16 22L 16 34L 22 34L 70 34L 76 34L 76 22Z"></path></g></g></g><g id="g-root-cp_2_g-2_8vwe29e8e2gw-fill" data-item-order="-578524" transform="translate(136, 203)"><g id="cp_2_g-2_8vwe29e8e2gw-fill-merged" stroke="none" fill="#43dd93" fill-opacity="1"><g><path d="M82 298 V310 H10 V298 H16 V286 H22 V34 H16 V22 H10 V10 H82 V22 H76 V34 H70 V286 H76 V298 H82"></path></g></g></g><g id="g-root-cp_2_g-2_8vwe29e8e2gw-stroke" data-item-order="-578524" transform="translate(136, 203)"><g id="cp_2_g-2_8vwe29e8e2gw-stroke" fill="none" stroke-linecap="round" stroke-linejoin="round" stroke-miterlimit="4" stroke="#2c2c2c" stroke-width="2" stroke-opacity="1"><g><path d="M 22 34L 70 34L 70 286L 22 286L 22 34ZM 16 22L 76 22L 82 22L 82 10L 10 10L 10 22L 16 22ZM 76 298L 16 298L 10 298L 10 310L 82 310L 82 298L 76 298ZM 76 298L 76 286L 70 286L 22 286L 16 286L 16 298L 76 298ZM 76 22L 16 22L 16 34L 22 34L 70 34L 76 34L 76 22Z"></path></g></g></g><g id="g-root-cp_1_g-1_9dtde8e39l-fill" data-item-order="-578520" transform="translate(52, 203)"><g id="cp_1_g-1_9dtde8e39l-fill-merged" stroke="none" fill="#1ac3fb" fill-opacity="1"><g><path d="M82 298 V310 H10 V298 H16 V286 H22 V34 H16 V22 H10 V10 H82 V22 H76 V34 H70 V286 H76 V298 H82"></path></g></g></g><g id="g-root-cp_1_g-1_9dtde8e39l-stroke" data-item-order="-578520" transform="translate(52, 203)"><g id="cp_1_g-1_9dtde8e39l-stroke" fill="none" stroke-linecap="round" stroke-linejoin="round" stroke-miterlimit="4" stroke="#2c2c2c" stroke-width="2" stroke-opacity="1"><g><path d="M 22 34L 70 34L 70 286L 22 286L 22 34ZM 16 22L 76 22L 82 22L 82 10L 10 10L 10 22L 16 22ZM 76 298L 16 298L 10 298L 10 310L 82 310L 82 298L 76 298ZM 76 298L 76 286L 70 286L 22 286L 16 286L 16 298L 76 298ZM 76 22L 16 22L 16 34L 22 34L 70 34L 76 34L 76 22Z"></path></g></g></g><g id="g-root-ic_sett_13z9e0he8e3ut-fill" data-item-order="0" transform="translate(531, 139.5)"></g><g id="g-root-ic_sett_13z9e0he8e3ut-stroke" data-item-order="0" transform="translate(531, 139.5)"><g id="ic_sett_13z9e0he8e3ut-stroke" fill="none" stroke-linecap="round" stroke-linejoin="round" stroke-miterlimit="4" stroke="#f4f4f4" stroke-width="2" stroke-opacity="1"><g><path d="M 14.4779 49.5C 16.13476 49.5 17.4779 48.156799 17.4779 46.5C 17.4779 44.843201 16.13476 43.5 14.4779 43.5C 12.82106 43.5 11.477906 44.843201 11.477906 46.5C 11.477906 48.156799 12.82106 49.5 14.4779 49.5ZM 27.678101 40.203598C 29.334961 40.203598 30.6782 38.860397 30.6782 37.203598C 30.6782 35.546799 29.334961 34.203598 27.678101 34.203598C 26.02124 34.203598 24.678101 35.546799 24.678101 37.203598C 24.678101 38.860397 26.02124 40.203598 27.678101 40.203598ZM 10 10M 27.678101 40.203598L 27.678101 56.5M 17.4779 46.5L 19.16688 46.5C 20.43362 46.5 21.278099 47.299999 21.278099 48.5L 21.278099 56.5M 40.678001 49.5C 42.334801 49.5 43.678001 48.156799 43.678001 46.5C 43.678001 44.843201 42.334801 43.5 40.678001 43.5C 39.021202 43.5 37.678001 44.843201 37.678001 46.5C 37.678001 48.156799 39.021202 49.5 40.678001 49.5ZM 37.678001 46.5L 36.077999 46.5C 34.877998 46.5 34.077999 47.299999 34.077999 48.5L 34.077999 56.5M 10 10M 22.277859 30.1L 21.477859 29.099899C 21.07786 28.499901 20.07786 28.299879 19.477859 28.699881L 17.477859 29.899879C 15.87786 30.899799 13.87784 29.09988 14.67784 27.299879L 15.67784 25.299881C 16.077839 24.49988 15.67784 23.699879 15.07784 23.299881L 13.07784 22.299881C 11.277843 21.299881 11.877862 18.6999 13.87786 18.499901L 16.077839 18.299881C 16.87784 18.299881 17.477859 17.49988 17.477859 16.699881L 17.477859 14.4999C 17.477859 12.4999 19.87784 11.699883 21.077839 13.29988L 22.477859 15.099899C 22.877861 15.6999 23.877861 15.8999 24.477859 15.4999L 26.477859 14.29988C 28.07786 13.29988 30.077801 15.09988 29.277861 16.899879L 28.277861 18.899879C 27.877859 19.699879 28.277861 20.49988 28.877859 20.899879L 30.8778 21.899879C 32.677799 22.899879 32.077801 25.49988 30.077801 25.699879L 27.877859 25.899879C 27.07786 25.899879 26.477859 26.6999 26.477859 27.499901L 26.477859 28.699881M 10 10M 49.0802 14.74644L 49.768799 16.984859C 49.941002 17.845779 50.801998 18.190159 51.6628 18.017979L 53.901402 17.501419C 55.967602 16.984859 57.345001 19.39546 55.967602 20.94512L 54.417801 22.666981C 53.901402 23.355721 53.901402 24.21664 54.417801 24.733181L 55.967602 26.45504C 57.345001 28.0047 55.967602 30.415199 53.901402 29.898741L 51.6628 29.382179C 50.801998 29.209999 50.113201 29.726561 49.768799 30.4154L 49.0802 32.653801C 48.391399 34.720001 45.636398 34.720001 45.119801 32.653801L 44.431198 30.4154C 44.258999 29.55438 43.397999 29.209999 42.536999 29.382179L 40.298599 29.898741C 38.232399 30.415199 36.855 28.0047 38.232399 26.45504L 39.7822 24.733181C 40.298599 24.044441 40.298599 23.183521 39.7822 22.666981L 38.232399 20.94512C 36.855 19.39546 38.232399 16.984859 40.298599 17.501419L 42.536999 18.017979C 43.397999 18.190159 44.0868 17.673599 44.431198 16.984859L 45.119801 14.74644C 45.636398 12.68022 48.563599 12.68022 49.0802 14.74644ZM 21.977859 24.390041C 23.180279 24.390041 24.155041 23.41526 24.155041 22.212841C 24.155041 21.010399 23.180279 20.035641 21.977859 20.035641C 20.775421 20.035641 19.800659 21.010399 19.800659 22.212841C 19.800659 23.41526 20.775421 24.390041 21.977859 24.390041ZM 47.099998 25.87734C 48.302399 25.87734 49.277199 24.90258 49.277199 23.70014C 49.277199 22.497719 48.302399 21.52294 47.099998 21.52294C 45.8974 21.52294 44.922798 22.497719 44.922798 23.70014C 44.922798 24.90258 45.8974 25.87734 47.099998 25.87734Z"></path></g></g></g><g id="g-root-tx_ai_1hapwdte8e29v-fill" data-item-order="0" transform="translate(591, 139.5)"><g id="tx_ai_1hapwdte8e29v-fill-merged" stroke="none" fill="#1ac3fb" fill-opacity="1"><g><text style="font: bold 20px Roboto, sans-serif; white-space: pre;" transform="translate(10, 22)" font-weight="bold" font-size="20px" font-family="Roboto, sans-serif"><tspan x="2" y="11.5" dominant-baseline="ideographic">AI</tspan></text></g></g></g><g id="g-root-tx_ai_1hapwdte8e29v-stroke" data-item-order="0" transform="translate(591, 139.5)"></g><g id="g-root-tx_software_18f2w4xe8e32k-fill" data-item-order="0" transform="translate(591, 175.5)"><g id="tx_software_18f2w4xe8e32k-fill-merged" stroke="none" fill="#f4f4f4" fill-opacity="1"><g><text style="font: 15px Roboto, sans-serif; white-space: pre;" transform="translate(10, 19)" font-size="15px" font-family="Roboto, sans-serif"><tspan x="2" y="8.5" dominant-baseline="ideographic">Software capable of human-like tasks</tspan></text></g></g></g><g id="g-root-tx_software_18f2w4xe8e32k-stroke" data-item-order="0" transform="translate(591, 175.5)"></g><g id="g-root-ic_myth_m8lxrle7x7gg-fill" data-item-order="0" transform="translate(531, 217.5)"></g><g id="g-root-ic_myth_m8lxrle7x7gg-stroke" data-item-order="0" transform="translate(531, 217.5)"><g id="ic_myth_m8lxrle7x7gg-stroke" fill="none" stroke-linecap="round" stroke-linejoin="round" stroke-miterlimit="4" stroke="#f4f4f4" stroke-width="2" stroke-opacity="1"><g><path d="M 44.32 40.200001C 40.586273 38.239426 36.458656 37.145653 32.243999 37C 32.091171 36.992706 31.940992 37.041821 31.822001 37.138C 31.711136 37.224129 31.64501 37.355644 31.641998 37.495998L 31.642 53.866001C 31.663242 54.153194 31.906113 54.373184 32.194 54.366001C 36.048973 53.868931 39.955292 54.755505 43.217999 56.868C 43.571281 56.994923 43.948753 57.040054 44.322002 57M 44.32 40.200001C 48.05455 38.239716 52.182755 37.145973 56.397999 37C 56.550777 36.99308 56.700829 37.042152 56.82 37.138C 56.932175 37.224808 56.998482 37.358162 56.999996 37.5L 57 53.866001C 56.97876 54.153194 56.735889 54.373184 56.448002 54.366001C 52.593025 53.868931 48.68671 54.755505 45.424 56.868C 45.070686 56.994785 44.693249 57.039913 44.32 57M 44.32 40.190002L 44.32 56.995998M 35.653999 42.785999C 37.31028 42.805164 38.935768 43.236107 40.384003 44.040001M 35.653999 47.966C 37.310188 47.985832 38.935516 48.416733 40.384003 49.220001M 53.023998 42.785999C 51.368393 42.805412 49.74361 43.236351 48.296001 44.040001M 53.023998 47.966C 51.368492 47.986164 49.743893 48.417053 48.296001 49.220001M 37.066002 24.936001C 37.780025 25.745638 38.094734 26.832077 37.924004 27.898001C 37.777229 29.006184 37.087997 29.968407 36.085999 30.464001M 42.506001 34.514C 43.744034 32.784378 44.512375 30.763258 44.736 28.647999C 46.570358 28.204826 47.986961 26.747236 48.377647 24.900986C 48.768333 23.054733 48.063599 21.148247 46.565998 20C 46.707092 19.550587 46.781879 19.083 46.787998 18.612C 46.787998 15.889236 44.580765 13.682 41.858002 13.682C 41.677795 13.689877 41.498177 13.707906 41.32 13.736C 40.599964 12.270417 39.195393 11.261405 37.576641 11.046857C 35.957893 10.83231 34.338963 11.44059 33.262001 12.668C 32.290062 11.558673 30.868563 10.948425 29.394882 11.007854C 27.9212 11.067283 26.553453 11.790012 25.674 12.974C 24.182308 11.970178 22.261711 11.860402 20.665356 12.68772C 19.069 13.515039 18.051361 15.147567 18.011496 16.945126C 17.97163 18.742685 18.915892 20.418724 20.474001 21.316002C 20.459278 21.394064 20.448597 21.472836 20.442001 21.552C 20.441286 22.14526 20.61898 22.725025 20.952 23.216C 19.784 25.666 18.799999 28.48 17.667999 31.412001C 17.5737 31.657032 17.580807 31.92952 17.687752 32.169304C 17.794697 32.409084 17.992685 32.596439 18.237999 32.690002C 18.350182 32.733795 18.469574 32.75618 18.59 32.756001L 21.096001 32.756001L 21.096001 36.709999C 21.095469 37.759357 21.512089 38.765892 22.254099 39.5079C 22.996109 40.249908 24.00264 40.666531 25.051998 40.666L 27.028 40.666L 27.028 44.622002L 16.118 49.458C 13.781368 50.495762 12.052868 52.551811 11.432 55.031998L 11 56.759998M 20.945999 23.212C 21.909672 24.176716 23.354977 24.475479 24.622162 23.971912C 25.889347 23.468342 26.735355 22.259029 26.774 20.896C 27.452063 22.654503 29.1413 23.815359 31.026001 23.818001M 27.472 26.936001C 27.748142 26.936001 27.972 27.159857 27.972 27.436001C 27.972 27.712143 27.748142 27.936001 27.472 27.936001C 27.195858 27.936001 26.972 27.712143 26.972 27.436001C 26.972 27.159857 27.195858 26.936001 27.472 26.936001"></path></g></g></g><g id="g-root-tx_machinel_13z9h69e7x892-fill" data-item-order="0" transform="translate(591, 217.5)"><g id="tx_machinel_13z9h69e7x892-fill-merged" stroke="none" fill="#43dd93" fill-opacity="1"><g><text style="font: bold 20px Roboto, sans-serif; white-space: pre;" transform="translate(10, 22)" font-weight="bold" font-size="20px" font-family="Roboto, sans-serif"><tspan x="2" y="11.5" dominant-baseline="ideographic">Machine Learning</tspan></text></g></g></g><g id="g-root-tx_machinel_13z9h69e7x892-stroke" data-item-order="0" transform="translate(591, 217.5)"></g><g id="g-root-tx_aisabili_qnsysxe7x9tz-fill" data-item-order="0" transform="translate(591, 253.5)"><g id="tx_aisabili_qnsysxe7x9tz-fill-merged" stroke="none" fill="#f4f4f4" fill-opacity="1"><g><text style="font: 15px Roboto, sans-serif; white-space: pre;" transform="translate(10, 19)" font-size="15px" font-family="Roboto, sans-serif"><tspan x="2" y="8.5" dominant-baseline="ideographic">AI's ability to learn from data</tspan></text></g></g></g><g id="g-root-tx_aisabili_qnsysxe7x9tz-stroke" data-item-order="0" transform="translate(591, 253.5)"></g><g id="g-root-ic_draw_dccgfle82vbf-fill" data-item-order="0" transform="translate(531, 295.5)"></g><g id="g-root-ic_draw_dccgfle82vbf-stroke" data-item-order="0" transform="translate(531, 295.5)"><g id="ic_draw_dccgfle82vbf-stroke" fill="none" stroke-linecap="round" stroke-linejoin="round" stroke-miterlimit="4" stroke="#f4f4f4" stroke-width="2" stroke-opacity="1"><g><path d="M 43.380001 52.34C 45.728004 53.1922 48.227676 53.546375 50.720001 53.380001C 52.720001 53.380001 57 42.900002 57 40.799999C 57 38.700001 54.900002 34.52 51.759998 34.52C 48.619999 34.52 43.380001 37.66 43.380001 37.66M 20.68 29.799999C 14.219999 32.580002 10.92 36.959999 11 42C 11.1 47.720001 16 53.040001 25.700001 53.060001M 46.560001 36C 44.071365 34.607094 41.141472 34.227425 38.379997 34.939999C 33.34 35.779999 31.379999 40.940002 28.379999 42.939999C 25.380001 44.939999 20.380001 45.939999 18.380001 41.940002C 16.380001 37.940002 22.6 33.799999 22.6 33.799999M 30 48C 30 48 25 56.360001 19.4 55.360001C 26.639999 60.139999 33.639999 53.360001 33.639999 53.360001C 33.578529 51.015476 32.156631 48.921692 30 48ZM 36.879997 42C 37.156143 42 37.379997 42.223858 37.379997 42.5M 36.379997 42.439999C 36.379997 42.163857 36.603859 41.940002 36.879997 41.940002M 36.879997 42.939999C 36.603859 42.939999 36.379997 42.716141 36.379997 42.439999M 37.379997 42.439999C 37.379997 42.716141 37.156143 42.939999 36.879997 42.939999M 18.42 25.119999L 24.42 37.34C 24.697124 38.181915 25.440819 38.784119 26.321959 38.880104C 27.2031 38.976089 28.05901 38.548134 28.510908 37.785629C 28.962805 37.023125 28.927259 36.066849 28.42 35.34L 22.779999 23.74M 23.6 22.639999C 25.279999 20 23.08 15.02 19.299999 13.7C 17.48819 13.058041 15.792756 12.12589 14.28 10.94C 13.439516 12.776661 12.97052 14.761395 12.9 16.779999C 12.9 19.939999 14 25.18 18.5 25.1C 20.547024 25.426243 22.581047 24.445126 23.6 22.639999ZM 13.16 19.619999C 14.32 19.779999 19.619999 20.26 22.139999 15.62M 34 30L 34 14C 34 13.447716 34.447716 13 35 13L 54 13C 54.552284 13 55 13.447716 55 14L 55 30M 38 28L 41.48 22.779999C 41.859978 22.335667 42.415352 22.079845 43 22.079845C 43.584648 22.079845 44.140022 22.335667 44.52 22.779999L 48 28M 48.880001 18C 49.156143 18 49.380001 18.223858 49.380001 18.5M 48.380001 18.439999C 48.410511 18.187517 48.625687 17.998163 48.880001 18M 48.880001 18.939999C 48.603859 18.939999 48.380001 18.716143 48.380001 18.439999M 49.380001 18.439999C 49.380001 18.716143 49.156143 18.939999 48.880001 18.939999"></path></g></g></g><g id="g-root-tx_generati_zithype82w3l-fill" data-item-order="0" transform="translate(591, 295.5)"><g id="tx_generati_zithype82w3l-fill-merged" stroke="none" fill="#a6da37" fill-opacity="1"><g><text style="font: bold 20px Roboto, sans-serif; white-space: pre;" transform="translate(10, 22)" font-weight="bold" font-size="20px" font-family="Roboto, sans-serif"><tspan x="2" y="11.5" dominant-baseline="ideographic">Generative AI</tspan></text></g></g></g><g id="g-root-tx_generati_zithype82w3l-stroke" data-item-order="0" transform="translate(591, 295.5)"></g><g id="g-root-tx_aiscreat_m7zgohe82uiq-fill" data-item-order="0" transform="translate(591, 331.5)"><g id="tx_aiscreat_m7zgohe82uiq-fill-merged" stroke="none" fill="#f4f4f4" fill-opacity="1"><g><text style="font: 15px Roboto, sans-serif; white-space: pre;" transform="translate(10, 19)" font-size="15px" font-family="Roboto, sans-serif"><tspan x="2" y="8.5" dominant-baseline="ideographic">AI's creative capabilities</tspan></text></g></g></g><g id="g-root-tx_aiscreat_m7zgohe82uiq-stroke" data-item-order="0" transform="translate(591, 331.5)"></g><g id="g-root-ic_cont_13z9h69e88i6i-fill" data-item-order="0" transform="translate(531, 373.5)"></g><g id="g-root-ic_cont_13z9h69e88i6i-stroke" data-item-order="0" transform="translate(531, 373.5)"><g id="ic_cont_13z9h69e88i6i-stroke" fill="none" stroke-linecap="round" stroke-linejoin="round" stroke-miterlimit="4" stroke="#f4f4f4" stroke-width="2" stroke-opacity="1"><g><path d="M 54.063202 31.5856C 55.371601 29.86528 56.130001 27.72834 56.130001 25.45422L 56.130001 24.17432C 56.130001 18.03932 51.4454 12.91974 45.3344 12.37656L 41.756798 12.05854C 36.595802 11.599788 31.4042 11.599788 26.2432 12.05854L 22.66016 12.37704C 16.55232 12.91996 11.869996 18.036961 11.869996 24.16888L 11.869996 25.43054C 11.869996 29.92454 14.825621 33.8834 19.134319 35.160599C 22.87076 36.267998 26.91424 35.367798 29.827761 32.7794L 31.858999 30.975C 33.0812 29.889339 34.9212 29.88666 36.1464 30.9688L 38.231598 32.810402C 38.575798 33.114201 38.9356 33.394798 39.308601 33.651001M 10 10M 44.3466 18.9478L 41.0816 18.65756C 36.371597 18.238899 31.6336 18.238899 26.923599 18.657581L 23.65366 18.94824M 47.651199 52.214802L 47.651199 56.285599M 48.073601 34.429398L 47.228802 34.429398C 45.3624 34.429398 43.8494 35.942398 43.8494 37.8088L 43.8494 43.933998C 43.8494 45.8004 45.3624 47.3134 47.228802 47.3134L 48.073601 47.3134C 49.939999 47.3134 51.452999 45.8004 51.452999 43.933998L 51.452999 37.8088C 51.452999 35.942398 49.939999 34.429398 48.073601 34.429398ZM 56.062 46.163601C 55.696602 47.538399 54.973801 48.806 53.9506 49.829201C 52.423801 51.355999 50.353001 52.213799 48.1936 52.213799L 47.1082 52.213799C 44.948799 52.213799 42.877998 51.355999 41.3512 49.829201C 40.327999 48.806 39.605202 47.538399 39.239799 46.163601"></path></g></g></g><g id="g-root-tx_prompt_1q6czshe88fsw-fill" data-item-order="0" transform="translate(591, 373.5)"><g id="tx_prompt_1q6czshe88fsw-fill-merged" stroke="none" fill="#ffe711" fill-opacity="1"><g><text style="font: bold 20px Roboto, sans-serif; white-space: pre;" transform="translate(10, 22)" font-weight="bold" font-size="20px" font-family="Roboto, sans-serif"><tspan x="2" y="11.5" dominant-baseline="ideographic">Prompt</tspan></text></g></g></g><g id="g-root-tx_prompt_1q6czshe88fsw-stroke" data-item-order="0" transform="translate(591, 373.5)"></g><g id="g-root-tx_instruct_1cuwhf5e88hdt-fill" data-item-order="0" transform="translate(591, 409.5)"><g id="tx_instruct_1cuwhf5e88hdt-fill-merged" stroke="none" fill="#f4f4f4" fill-opacity="1"><g><text style="font: 15px Roboto, sans-serif; white-space: pre;" transform="translate(10, 19)" font-size="15px" font-family="Roboto, sans-serif"><tspan x="2" y="8.5" dominant-baseline="ideographic">Instructions given to AI</tspan></text></g></g></g><g id="g-root-tx_instruct_1cuwhf5e88hdt-stroke" data-item-order="0" transform="translate(591, 409.5)"></g><g id="g-root-ic_sit_m7czlde8gw09-fill" data-item-order="0" transform="translate(531, 451.5)"></g><g id="g-root-ic_sit_m7czlde8gw09-stroke" data-item-order="0" transform="translate(531, 451.5)"><g id="ic_sit_m7czlde8gw09-stroke" fill="none" stroke-linecap="round" stroke-linejoin="round" stroke-miterlimit="4" stroke="#f4f4f4" stroke-width="2" stroke-opacity="1"><g><path d="M 43.02 23.4956C 45.781399 23.4956 48.02 21.257019 48.02 18.4956C 48.02 15.73418 45.781399 13.4956 43.02 13.4956C 40.258598 13.4956 38.02 15.73418 38.02 18.4956C 38.02 21.257019 40.258598 23.4956 43.02 23.4956ZM 33.219803 34.292L 22.019859 34.292C 21.419861 34.292 20.81986 33.891998 20.61986 33.292L 18.61986 26.291941C 18.419861 25.49194 19.019859 24.49194 20.019859 24.49194L 29.21986 24.49194C 29.81986 24.49194 30.4198 24.891941 30.619801 25.49194L 33.219803 34.292ZM 39.819801 34.292L 33.219803 34.292M 54.580002 23.50806C 56.580002 27.50806 57.18 33.708 55.580002 39.708C 53.380001 48.507999 51.18 55.507999 41.779999 55.507999L 29.58008 55.507999M 10 10M 39.502602 42.292L 31.5026 40.292C 29.10256 39.692001 26.502581 40.692001 25.102581 42.692001L 19.302559 50.891998C 18.302559 52.292 18.702579 54.292 20.102581 55.091999C 21.30258 55.891998 23.10256 55.492001 23.902561 54.292L 29.302561 46.492001L 34.702599 48.091999C 35.702599 48.292 36.702599 48.492001 37.902599 48.492001L 41.302601 48.492001C 43.702599 48.492001 45.902599 46.891998 46.902599 44.692001L 50.502602 35.492001C 51.702599 32.091999 50.1026 28.292 46.702599 26.892C 43.9422 25.91774 40.917999 26.789181 39.128799 28.9711M 10 10M 26.703119 41.140602L 24.25548 40.292C 21.85548 39.692001 19.25548 40.692001 17.85548 42.692001L 12.0555 50.891998C 11.055496 52.292 11.455484 54.292 12.85548 55.091999C 14.05548 55.891998 15.8555 55.492001 16.6555 54.292L 19.125599 51.139999"></path></g></g></g><g id="g-root-tx_vibecodi_1d3n4mpe8fhfr-fill" data-item-order="0" transform="translate(591, 451.5)"><g id="tx_vibecodi_1d3n4mpe8fhfr-fill-merged" stroke="none" fill="#f79438" fill-opacity="1"><g><text style="font: bold 20px Roboto, sans-serif; white-space: pre;" transform="translate(10, 22)" font-weight="bold" font-size="20px" font-family="Roboto, sans-serif"><tspan x="2" y="11.5" dominant-baseline="ideographic">Vibe Coding</tspan></text></g></g></g><g id="g-root-tx_vibecodi_1d3n4mpe8fhfr-stroke" data-item-order="0" transform="translate(591, 451.5)"></g><g id="g-root-tx_aiassist_v2zzu9e8gv7k-fill" data-item-order="0" transform="translate(591, 487.5)"><g id="tx_aiassist_v2zzu9e8gv7k-fill-merged" stroke="none" fill="#f4f4f4" fill-opacity="1"><g><text style="font: 15px Roboto, sans-serif; white-space: pre;" transform="translate(10, 19)" font-size="15px" font-family="Roboto, sans-serif"><tspan x="2" y="8.5" dominant-baseline="ideographic">AI-assisted code generation</tspan></text></g></g></g><g id="g-root-tx_aiassist_v2zzu9e8gv7k-stroke" data-item-order="0" transform="translate(591, 487.5)"></g></g></g></svg>